<svg width="12" height="12" viewBox="0 0 12 12" fill="none" xmlns="http://www.w3.org/2000/svg">
<path d="M0.806549 0.924571L0.862008 0.861764C1.10234 0.621444 1.48049 0.602958 1.74202 0.806304L1.80482 0.861764L6.00008 5.0565L10.1953 0.861764C10.4557 0.601418 10.8778 0.601418 11.1381 0.861764C11.3985 1.12212 11.3985 1.54422 11.1381 1.80458L6.94342 5.99984L11.1381 10.1951C11.3785 10.4354 11.3969 10.8136 11.1936 11.0751L11.1381 11.1379C10.8978 11.3782 10.5197 11.3967 10.2581 11.1934L10.1953 11.1379L6.00008 6.94317L1.80482 11.1379C1.54447 11.3982 1.12236 11.3982 0.862008 11.1379C0.601662 10.8776 0.601662 10.4554 0.862008 10.1951L5.05675 5.99984L0.862008 1.80458C0.621688 1.56425 0.603202 1.1861 0.806549 0.924571L0.862008 0.861764L0.806549 0.924571Z" fill="#212121"/>
</svg>
