<svg width="12" height="19" viewBox="0 0 12 19" fill="none" xmlns="http://www.w3.org/2000/svg">
<path d="M1.00628 17.1313C0.664573 17.473 0.664573 18.027 1.00628 18.3687C1.34799 18.7104 1.90201 18.7104 2.24372 18.3687L1.00628 17.1313ZM10.375 9L10.9937 9.61872C11.1635 9.44898 11.256 9.21696 11.2497 8.977C11.2434 8.73703 11.1388 8.5102 10.9603 8.34962L10.375 9ZM2.21034 0.474617C1.85115 0.15134 1.29789 0.18046 0.974618 0.539656C0.651341 0.898851 0.68046 1.45211 1.03966 1.77538L2.21034 0.474617ZM2.24372 18.3687L10.9937 9.61872L9.75628 8.38128L1.00628 17.1313L2.24372 18.3687ZM10.9603 8.34962L2.21034 0.474617L1.03966 1.77538L9.78966 9.65038L10.9603 8.34962Z" fill="white"/>
</svg>
