<svg width="14" height="12" viewBox="0 0 14 12" fill="none" xmlns="http://www.w3.org/2000/svg">
<path d="M3.47133 0.19526C3.21097 -0.0650867 2.78887 -0.0650867 2.52851 0.19526L1.66659 1.05719L1.47133 0.861927C1.21097 0.60158 0.788865 0.60158 0.528512 0.861927C0.268165 1.12228 0.268165 1.54439 0.528512 1.80474L1.19518 2.47141C1.45553 2.73175 1.87764 2.73175 2.13799 2.47141L3.47133 1.13807C3.73167 0.87772 3.73167 0.455613 3.47133 0.19526ZM13.0022 9.32887H5.66626L5.58851 9.33333C5.25695 9.37187 4.99959 9.65367 4.99959 9.99553C4.99959 10.3637 5.29807 10.6622 5.66626 10.6622H13.0022L13.08 10.6577C13.4115 10.6192 13.6689 10.3374 13.6689 9.99553C13.6689 9.62733 13.3704 9.32887 13.0022 9.32887ZM13.0022 5.33333H5.66626L5.58851 5.3378C5.25695 5.37633 4.99959 5.65813 4.99959 6C4.99959 6.3682 5.29807 6.66667 5.66626 6.66667H13.0022L13.08 6.6622C13.4115 6.62367 13.6689 6.34187 13.6689 6C13.6689 5.6318 13.3704 5.33333 13.0022 5.33333ZM13.0022 1.33336H5.66626L5.58851 1.33785C5.25695 1.37635 4.99959 1.65813 4.99959 2.00003C4.99959 2.36821 5.29807 2.66669 5.66626 2.66669H13.0022L13.08 2.66221C13.4115 2.6237 13.6689 2.34191 13.6689 2.00003C13.6689 1.63183 13.3704 1.33336 13.0022 1.33336ZM3.47133 8.86193C3.21097 8.6016 2.78887 8.6016 2.52851 8.86193L1.66659 9.72387L1.47133 9.5286C1.21097 9.26827 0.788865 9.26827 0.528512 9.5286C0.268165 9.78893 0.268165 10.2111 0.528512 10.4714L1.19518 11.1381C1.45553 11.3984 1.87764 11.3984 2.13799 11.1381L3.47133 9.80473C3.73167 9.5444 3.73167 9.12227 3.47133 8.86193ZM2.52851 4.52859C2.78887 4.26825 3.21097 4.26825 3.47133 4.52859C3.73167 4.78893 3.73167 5.21107 3.47133 5.4714L2.13799 6.80473C1.87764 7.06507 1.45553 7.06507 1.19518 6.80473L0.528512 6.13807C0.268165 5.87773 0.268165 5.4556 0.528512 5.19527C0.788865 4.93493 1.21097 4.93493 1.47133 5.19527L1.66659 5.39053L2.52851 4.52859Z" fill="#041342"/>
</svg>
