<svg width="63" height="51" viewBox="0 0 63 51" fill="none" xmlns="http://www.w3.org/2000/svg">
<rect x="0.399902" width="62.6" height="50.6002" rx="25.3001" fill="#E1E1E1"/>
<path d="M25.3249 40.6004H27.8749V38.0504H25.3249V40.6004ZM31.6999 26.5754C33.8164 26.5754 35.5122 24.8669 35.5122 22.7504L35.5249 15.1004C35.5249 12.9839 33.8164 11.2754 31.6999 11.2754C29.5834 11.2754 27.8749 12.9839 27.8749 15.1004V22.7504C27.8749 24.8669 29.5834 26.5754 31.6999 26.5754ZM30.4249 40.6004H32.9749V38.0504H30.4249V40.6004ZM35.5249 40.6004H38.0749V38.0504H35.5249V40.6004ZM39.4519 22.7504C38.9164 22.7504 38.4702 23.1329 38.3937 23.6556C37.9219 26.9834 34.9257 29.2529 31.6999 29.2529C28.4742 29.2529 25.4779 26.9961 25.0062 23.6556C24.9297 23.1329 24.4707 22.7504 23.9479 22.7504C23.2849 22.7504 22.7749 23.3369 22.8642 23.9871C23.4507 27.7611 26.6382 30.7446 30.4249 31.3184V34.2254C30.4249 34.9266 30.9987 35.5004 31.6999 35.5004C32.4012 35.5004 32.9749 34.9266 32.9749 34.2254V31.3184C36.7489 30.7574 39.9492 27.7611 40.5357 23.9871C40.6249 23.3369 40.1149 22.7504 39.4519 22.7504Z" fill="black"/>
</svg>
