<svg width="15" height="15" viewBox="0 0 15 15" fill="none" xmlns="http://www.w3.org/2000/svg">
<g clip-path="url(#clip0_20_30)">
<path fill-rule="evenodd" clip-rule="evenodd" d="M0.939763 1.90909C0.939763 1.67045 3.40298 0 5.84885 0C8.29467 0 10.7579 1.67045 10.7579 1.90909C10.7579 2.76 10.6676 3.26389 10.5909 3.53831C10.5405 3.71836 10.3719 3.81818 10.1849 3.81818H1.51282C1.32584 3.81818 1.15713 3.71831 1.10684 3.53825C1.03009 3.26378 0.939763 2.75989 0.939763 1.90909ZM5.03067 1.63636C4.72942 1.63636 4.48522 1.88057 4.48522 2.18182C4.48522 2.48307 4.72942 2.72727 5.03067 2.72727H6.66704C6.96824 2.72727 7.21249 2.48307 7.21249 2.18182C7.21249 1.88057 6.96824 1.63636 6.66704 1.63636H5.03067ZM1.50584 7.20982C-0.310692 6.64789 0.147708 5.6448 0.840872 4.90909H11.0088C11.5629 5.61687 11.8603 6.57213 10.1849 7.14398C10.2032 7.30571 10.2125 7.47005 10.2125 7.63636C10.2125 10.0463 8.25878 12 5.84885 12C3.43887 12 1.48522 10.0463 1.48522 7.63636C1.48522 7.49258 1.4922 7.35027 1.50584 7.20982ZM5.70016 7.63636C7.14174 7.63636 8.25824 7.56011 9.11498 7.42675C9.11935 7.49602 9.12158 7.56589 9.12158 7.63636C9.12158 9.44384 7.65633 10.9091 5.84885 10.9091C4.04138 10.9091 2.57613 9.44384 2.57613 7.63636C2.57613 7.57865 2.5776 7.52133 2.58055 7.46438C3.37822 7.57445 4.40116 7.63636 5.70016 7.63636ZM10.4402 15.5995C9.46996 14.0905 7.77611 13.0909 5.84885 13.0909C3.92084 13.0909 2.22644 14.0912 1.2564 15.6011C1.07929 15.3292 0.805036 15.1191 0.466908 15.0285L-0.586855 14.7462C-1.31427 14.5513 -2.06203 14.983 -2.25695 15.7104L-2.68047 17.291C-2.87539 18.0185 -2.44369 18.7662 -1.71622 18.9611L-0.66251 19.2435C-0.289855 19.3433 0.0880358 19.2788 0.394309 19.0942C0.396109 19.394 0.639599 19.6364 0.939763 19.6364C1.24096 19.6364 1.48522 19.3922 1.48522 19.0909V18.5455C1.48522 18.3376 1.49973 18.1332 1.52782 17.9331L4.36636 18.6937C4.62742 19.2506 5.19305 19.6364 5.84885 19.6364C6.5046 19.6364 7.07029 19.2506 7.33135 18.6937L10.1698 17.9331C10.1979 18.1332 10.2125 18.3376 10.2125 18.5455V19.0909C10.2125 19.3922 10.4567 19.6364 10.7579 19.6364C11.0574 19.6364 11.3006 19.395 11.3033 19.0961C11.6092 19.2795 11.9861 19.3435 12.3578 19.2439L13.4115 18.9616C14.1389 18.7666 14.5706 18.0189 14.3757 17.2915L13.9522 15.7108C13.7573 14.9834 13.0095 14.5517 12.2821 14.7466L11.2283 15.029C10.891 15.1193 10.6173 15.3286 10.4402 15.5995ZM1.81413 16.8804C2.40207 15.4572 3.7212 14.4129 5.3034 14.2156V16.4567C4.81009 16.6311 4.42538 17.0353 4.27784 17.5406L1.81413 16.8804ZM9.88358 16.8804C9.29558 15.4572 7.97645 14.4129 6.39431 14.2156V16.4567C6.88756 16.6311 7.27227 17.0353 7.41982 17.5406L9.88358 16.8804ZM5.84885 18.5455C6.15005 18.5455 6.39431 18.3013 6.39431 18C6.39431 17.6987 6.15005 17.4545 5.84885 17.4545C5.5476 17.4545 5.3034 17.6987 5.3034 18C5.3034 18.3013 5.5476 18.5455 5.84885 18.5455Z" fill="white"/>
</g>
<line x1="9.44444" y1="11.8892" x2="14.5556" y2="11.8892" stroke="white" stroke-width="0.888889" stroke-linecap="round"/>
<line x1="12.1108" y1="9.44444" x2="12.1108" y2="14.5556" stroke="white" stroke-width="0.888889" stroke-linecap="round"/>
<defs>
<clipPath id="clip0_20_30">
<rect width="12" height="12" fill="white"/>
</clipPath>
</defs>
</svg>
