<svg width="12" height="20" viewBox="0 0 12 20" fill="none" xmlns="http://www.w3.org/2000/svg">
<path d="M11.4975 2.85487L4.13593 9.99999L11.4975 17.1451C11.8199 17.4587 12.001 17.8841 12.001 18.3276C12.001 18.7712 11.8199 19.1965 11.4975 19.5102C11.1751 19.8238 10.7379 20 10.282 20C9.82608 20 9.38884 19.8238 9.06647 19.5102L0.506516 11.1825C0.346054 11.0277 0.218688 10.8435 0.131773 10.6405C0.0448575 10.4376 0.000110112 10.2199 0.000110122 9.99999C0.000110132 9.78012 0.0448575 9.56242 0.131773 9.35946C0.218688 9.1565 0.346054 8.9723 0.506516 8.81746L9.06647 0.489828C9.22609 0.334535 9.41559 0.211349 9.62415 0.127308C9.83271 0.0432643 10.0562 9.45404e-06 10.282 9.46364e-06C10.5077 9.47324e-06 10.7313 0.0432643 10.9398 0.127308C11.1484 0.211349 11.3379 0.334536 11.4975 0.489828C11.6571 0.645119 11.7837 0.829475 11.8701 1.03237C11.9565 1.23527 12.001 1.45274 12.001 1.67235C12.001 1.89197 11.9565 2.10943 11.8701 2.31233C11.7837 2.51523 11.6571 2.69958 11.4975 2.85487Z" fill="black"/>
</svg>
