<svg width="19" height="18" viewBox="0 0 19 18" fill="none" xmlns="http://www.w3.org/2000/svg">
<path d="M9.0118 7.7427e-06C7.27342 -0.00227205 5.57158 0.498948 4.11193 1.4431C2.65228 2.38725 1.49731 3.73392 0.786576 5.32038C0.0758428 6.90684 -0.160229 8.66518 0.106889 10.3829C0.374007 12.1007 1.13288 13.7043 2.29181 15L0.197808 16.962C0.110313 17.0448 0.0497838 17.1521 0.0241001 17.2698C-0.00158354 17.3875 0.00876842 17.5103 0.0538083 17.622C0.0982701 17.7336 0.17523 17.8294 0.274718 17.8968C0.374207 17.9641 0.491641 18.0001 0.611808 18H9.0118C11.3988 18 13.6879 17.0518 15.3758 15.364C17.0636 13.6761 18.0118 11.387 18.0118 9C18.0118 6.61306 17.0636 4.32387 15.3758 2.63605C13.6879 0.948219 11.3988 7.77827e-06 9.0118 7.7427e-06Z" fill="#4F4F4F"/>
<path d="M13.2117 6.59999H4.81167C4.65254 6.59999 4.49993 6.53678 4.38741 6.42426C4.27488 6.31174 4.21167 6.15912 4.21167 5.99999C4.21167 5.84086 4.27488 5.68825 4.38741 5.57573C4.49993 5.46321 4.65254 5.39999 4.81167 5.39999H13.2117C13.3708 5.39999 13.5234 5.46321 13.6359 5.57573C13.7485 5.68825 13.8117 5.84086 13.8117 5.99999C13.8117 6.15912 13.7485 6.31174 13.6359 6.42426C13.5234 6.53678 13.3708 6.59999 13.2117 6.59999ZM13.2117 9.59999H4.81167C4.65254 9.59999 4.49993 9.53678 4.38741 9.42426C4.27488 9.31173 4.21167 9.15912 4.21167 8.99999C4.21167 8.84086 4.27488 8.68825 4.38741 8.57573C4.49993 8.46321 4.65254 8.39999 4.81167 8.39999H13.2117C13.3708 8.39999 13.5234 8.46321 13.6359 8.57573C13.7485 8.68825 13.8117 8.84086 13.8117 8.99999C13.8117 9.15912 13.7485 9.31173 13.6359 9.42426C13.5234 9.53678 13.3708 9.59999 13.2117 9.59999ZM13.2117 12.6H4.81167C4.65254 12.6 4.49993 12.5368 4.38741 12.4243C4.27488 12.3117 4.21167 12.1591 4.21167 12C4.21167 11.8409 4.27488 11.6882 4.38741 11.5757C4.49993 11.4632 4.65254 11.4 4.81167 11.4H13.2117C13.3708 11.4 13.5234 11.4632 13.6359 11.5757C13.7485 11.6882 13.8117 11.8409 13.8117 12C13.8117 12.1591 13.7485 12.3117 13.6359 12.4243C13.5234 12.5368 13.3708 12.6 13.2117 12.6Z" fill="white"/>
</svg>
