<svg width="24" height="24" viewBox="0 0 24 24" fill="none" xmlns="http://www.w3.org/2000/svg">
<path d="M12 0.749998C9.82701 0.747148 7.6997 1.37367 5.87514 2.55386C4.05059 3.73405 2.60687 5.4174 1.71845 7.40047C0.830033 9.38354 0.534944 11.5815 0.868841 13.7286C1.20274 15.8758 2.15133 17.8804 3.59999 19.5L0.98249 21.9525C0.873121 22.056 0.797459 22.1901 0.765355 22.3373C0.73325 22.4844 0.74619 22.6378 0.80249 22.7775C0.858067 22.917 0.954267 23.0367 1.07863 23.1209C1.20299 23.2052 1.34978 23.2501 1.49999 23.25H12C14.9837 23.25 17.8452 22.0647 19.9549 19.955C22.0647 17.8452 23.25 14.9837 23.25 12C23.25 9.01631 22.0647 6.15483 19.9549 4.04505C17.8452 1.93526 14.9837 0.749998 12 0.749998Z" fill="#041342"/>
<path d="M17.25 9H6.75C6.55109 9 6.36032 8.92098 6.21967 8.78033C6.07902 8.63968 6 8.44891 6 8.25C6 8.05109 6.07902 7.86032 6.21967 7.71967C6.36032 7.57902 6.55109 7.5 6.75 7.5H17.25C17.4489 7.5 17.6397 7.57902 17.7803 7.71967C17.921 7.86032 18 8.05109 18 8.25C18 8.44891 17.921 8.63968 17.7803 8.78033C17.6397 8.92098 17.4489 9 17.25 9ZM17.25 12.75H6.75C6.55109 12.75 6.36032 12.671 6.21967 12.5303C6.07902 12.3897 6 12.1989 6 12C6 11.8011 6.07902 11.6103 6.21967 11.4697C6.36032 11.329 6.55109 11.25 6.75 11.25H17.25C17.4489 11.25 17.6397 11.329 17.7803 11.4697C17.921 11.6103 18 11.8011 18 12C18 12.1989 17.921 12.3897 17.7803 12.5303C17.6397 12.671 17.4489 12.75 17.25 12.75ZM17.25 16.5H6.75C6.55109 16.5 6.36032 16.421 6.21967 16.2803C6.07902 16.1397 6 15.9489 6 15.75C6 15.5511 6.07902 15.3603 6.21967 15.2197C6.36032 15.079 6.55109 15 6.75 15H17.25C17.4489 15 17.6397 15.079 17.7803 15.2197C17.921 15.3603 18 15.5511 18 15.75C18 15.9489 17.921 16.1397 17.7803 16.2803C17.6397 16.421 17.4489 16.5 17.25 16.5Z" fill="white"/>
</svg>
