<svg width="20" height="20" viewBox="0 0 20 20" fill="none" xmlns="http://www.w3.org/2000/svg">
<path d="M17.7586 5.01814H2.43066C1.22668 5.01814 0.250977 5.99408 0.250977 7.19783V17.1822C0.250977 18.3862 1.22668 19.3619 2.43066 19.3619H17.7586C18.9625 19.3619 19.9382 18.3862 19.9382 17.1822V7.19783C19.9382 5.99408 18.9625 5.01814 17.7586 5.01814ZM17.7342 9.64845L11.505 11.2891V11.6725C11.505 12.0344 11.2118 12.3273 10.8501 12.3273H9.33912C8.97725 12.3273 8.68428 12.0344 8.68428 11.6725V11.2891L2.47639 9.64845C2.24342 9.64845 2.05452 9.45954 2.05452 9.22657C2.05452 9.11009 2.10186 9.00462 2.17803 8.92822C2.25444 8.85204 2.35991 8.8047 2.47639 8.8047L8.68428 10.4453V10.1294C8.68428 9.76775 8.97725 9.47457 9.33912 9.47457H10.8501C11.2118 9.47457 11.505 9.76777 11.505 10.1294V10.4453L17.7342 8.8047C17.9671 8.8047 18.1561 8.99361 18.1561 9.22657C18.1561 9.45954 17.9671 9.64845 17.7342 9.64845ZM7.16487 3.11979C7.16553 3.00256 7.17256 2.88608 7.18726 2.76975C7.17748 2.84246 7.16773 2.91514 7.15796 2.98782C7.18344 2.80451 7.22827 2.62627 7.29828 2.45478C7.27072 2.5201 7.24313 2.58542 7.21559 2.65074C7.27557 2.5099 7.3509 2.37835 7.44411 2.25685C7.40136 2.31218 7.35861 2.36752 7.31584 2.42286C7.39768 2.31971 7.48981 2.22755 7.59296 2.14573C7.53762 2.18848 7.48229 2.23123 7.42695 2.274C7.54845 2.18079 7.67998 2.10547 7.82084 2.04549C7.75552 2.07305 7.6902 2.10061 7.62488 2.12818C7.79637 2.05817 7.97462 2.01333 8.15792 1.98786C8.08522 1.99763 8.01254 2.00738 7.93986 2.01715C8.1474 1.99097 8.35524 1.99477 8.56381 1.99477C8.87068 1.99477 9.17755 1.99477 9.48439 1.99477C10.1845 1.99477 10.8846 1.99477 11.5847 1.99477C11.8066 1.99477 12.0286 1.98931 12.2493 2.01715C12.1766 2.00738 12.1039 1.99763 12.0312 1.98786C12.2145 2.01333 12.3928 2.05817 12.5643 2.12818C12.4989 2.10061 12.4336 2.07303 12.3683 2.04549C12.5091 2.10547 12.6407 2.18079 12.7622 2.274C12.7069 2.23125 12.6515 2.1885 12.5962 2.14573C12.6993 2.22758 12.7915 2.31971 12.8733 2.42286C12.8305 2.36752 12.7878 2.31218 12.745 2.25685C12.8383 2.37835 12.9136 2.50988 12.9736 2.65074C12.946 2.58542 12.9184 2.5201 12.8909 2.45478C12.9609 2.62627 13.0057 2.80451 13.0312 2.98782C13.0214 2.91511 13.0116 2.84243 13.0019 2.76975C13.0166 2.88608 13.0236 3.00256 13.0243 3.11979C13.0268 3.56693 13.3955 3.94011 13.8446 3.94011C14.2898 3.94011 14.6674 3.56698 14.6649 3.11979C14.6631 2.80407 14.6242 2.47899 14.5307 2.17676C14.4235 1.83029 14.2562 1.54369 14.0334 1.26277C13.679 0.816075 13.1135 0.518958 12.5577 0.41956C11.9796 0.316224 11.3773 0.354145 10.7928 0.354145C10.0826 0.354145 9.37241 0.354145 8.66223 0.354145C8.49474 0.354145 8.3266 0.350372 8.15921 0.357122C7.48489 0.38431 6.86138 0.606567 6.35227 1.05279C5.77123 1.56207 5.52847 2.36958 5.52423 3.11975C5.5217 3.56693 5.89927 3.94006 6.34454 3.94006C6.79365 3.94011 7.16234 3.56691 7.16487 3.11979Z" fill="#606060"/>
</svg>
