<svg width="18" height="18" viewBox="0 0 18 18" fill="none" xmlns="http://www.w3.org/2000/svg">
<g clip-path="url(#clip0_2_3252)">
<path fill-rule="evenodd" clip-rule="evenodd" d="M1.40967 2.86364C1.40967 2.50568 5.1045 0 8.77331 0C12.442 0 16.1369 2.50568 16.1369 2.86364C16.1369 4.14 16.0014 4.89584 15.8863 5.30746C15.8108 5.57755 15.5578 5.72727 15.2774 5.72727H2.26925C1.98878 5.72727 1.73572 5.57746 1.66028 5.30738C1.54516 4.89567 1.40967 4.13984 1.40967 2.86364ZM7.54603 2.45455C7.09415 2.45455 6.72785 2.82086 6.72785 3.27273C6.72785 3.72461 7.09415 4.09091 7.54603 4.09091H10.0006C10.4524 4.09091 10.8188 3.72461 10.8188 3.27273C10.8188 2.82086 10.4524 2.45455 10.0006 2.45455H7.54603ZM2.25878 10.8147C-0.466011 9.97184 0.221589 8.4672 1.26133 7.36364H16.5132C17.3444 8.42531 17.7905 9.85819 15.2774 10.716C15.3048 10.9586 15.3188 11.2051 15.3188 11.4545C15.3188 15.0695 12.3882 18 8.77331 18C5.15833 18 2.22785 15.0695 2.22785 11.4545C2.22785 11.2389 2.23833 11.0254 2.25878 10.8147ZM8.55027 11.4545C10.7126 11.4545 12.3874 11.3402 13.6725 11.1401C13.679 11.244 13.6824 11.3488 13.6824 11.4545C13.6824 14.1658 11.4845 16.3636 8.77331 16.3636C6.0621 16.3636 3.86422 14.1658 3.86422 11.4545C3.86422 11.368 3.86643 11.282 3.87084 11.1966C5.06735 11.3617 6.60177 11.4545 8.55027 11.4545ZM15.6604 23.3993C14.205 21.1358 11.6642 19.6364 8.77331 19.6364C5.88128 19.6364 3.33968 21.1368 1.88463 23.4017C1.61896 22.9938 1.20758 22.6787 0.700389 22.5428L-0.880257 22.1193C-1.97138 21.8269 -3.09301 22.4745 -3.3854 23.5656L-4.02067 25.9365C-4.31306 27.0277 -3.6655 28.1493 -2.5743 28.4417L-0.993738 28.8652C-0.434756 29.015 0.13208 28.9181 0.591489 28.6414C0.594189 29.0909 0.959426 29.4545 1.40967 29.4545C1.86147 29.4545 2.22785 29.0882 2.22785 28.6364V27.8182C2.22785 27.5065 2.24962 27.1998 2.29175 26.8997L6.54957 28.0405C6.94115 28.8759 7.78961 29.4545 8.77331 29.4545C9.75693 29.4545 10.6055 28.8759 10.997 28.0405L15.2548 26.8997C15.2969 27.1998 15.3188 27.5065 15.3188 27.8182V28.6364C15.3188 29.0882 15.6851 29.4545 16.1369 29.4545C16.5861 29.4545 16.9509 29.0925 16.955 28.6442C17.4138 28.9193 17.9792 29.0153 18.5367 28.8659L20.1172 28.4424C21.2084 28.15 21.856 27.0284 21.5636 25.9372L20.9283 23.5663C20.636 22.4751 19.5143 21.8275 18.4232 22.12L16.8425 22.5434C16.3366 22.679 15.926 22.9929 15.6604 23.3993ZM2.72122 25.3206C3.60314 23.1858 5.58183 21.6193 7.95513 21.3234V24.6851C7.21516 24.9466 6.6381 25.5529 6.41678 26.3108L2.72122 25.3206ZM14.8254 25.3206C13.9434 23.1858 11.9647 21.6193 9.59149 21.3234V24.6851C10.3314 24.9466 10.9084 25.5529 11.1298 26.3108L14.8254 25.3206ZM8.77331 27.8182C9.22511 27.8182 9.59149 27.4519 9.59149 27C9.59149 26.5481 9.22511 26.1818 8.77331 26.1818C8.32143 26.1818 7.95513 26.5481 7.95513 27C7.95513 27.4519 8.32143 27.8182 8.77331 27.8182Z" fill="#606060"/>
</g>
<defs>
<clipPath id="clip0_2_3252">
<rect width="18" height="18" fill="white"/>
</clipPath>
</defs>
</svg>
