<svg width="22" height="28" viewBox="0 0 22 28" fill="none" xmlns="http://www.w3.org/2000/svg">
<path d="M11.0001 0C8.08375 0.00333504 5.28776 1.18443 3.22556 3.28417C1.16337 5.38391 0.00339747 8.23081 0.00012207 11.2003C0.00012207 15.7574 3.24925 19.5417 6.69087 23.5472C7.77987 24.8156 8.90737 26.1275 9.91112 27.4547C10.0396 27.6244 10.2045 27.7618 10.3933 27.8563C10.5821 27.9508 10.7897 28 11.0001 28C11.2105 28 11.4181 27.9508 11.6069 27.8563C11.7957 27.7618 11.9607 27.6244 12.0891 27.4547C13.0929 26.1275 14.2204 24.8156 15.3094 23.5472C18.751 19.5417 22.0001 15.7574 22.0001 11.2003C21.9968 8.23081 20.8369 5.38391 18.7747 3.28417C16.7125 1.18443 13.9165 0.00333504 11.0001 0ZM11.0001 15.4004C10.1843 15.4004 9.38675 15.1541 8.7084 14.6926C8.03004 14.231 7.50133 13.5751 7.18912 12.8076C6.87691 12.0401 6.79522 11.1956 6.95438 10.3809C7.11355 9.56615 7.50641 8.81776 8.08331 8.23037C8.6602 7.64297 9.3952 7.24295 10.1954 7.08089C10.9955 6.91882 11.8249 7.002 12.5787 7.3199C13.3324 7.63779 13.9767 8.17613 14.4299 8.86684C14.8832 9.55754 15.1251 10.3696 15.1251 11.2003C15.1251 12.3142 14.6905 13.3825 13.9169 14.1702C13.1434 14.9579 12.0941 15.4004 11.0001 15.4004Z" fill="#041342"/>
</svg>
