<svg width="14" height="19" viewBox="0 0 14 19" fill="none" xmlns="http://www.w3.org/2000/svg">
<path d="M7 0.990005C5.14412 0.992149 3.36486 1.75143 2.05255 3.10126C0.740251 4.45109 0.00208434 6.28124 0 8.19019C0 11.1198 2.06763 13.5525 4.25775 16.1275C4.95075 16.9429 5.66825 17.7862 6.307 18.6395C6.38874 18.7485 6.49372 18.8369 6.61387 18.8976C6.73401 18.9584 6.86611 18.99 7 18.99C7.13389 18.99 7.26599 18.9584 7.38613 18.8976C7.50628 18.8369 7.61126 18.7485 7.693 18.6395C8.33175 17.7862 9.04925 16.9429 9.74225 16.1275C11.9324 13.5525 14 11.1198 14 8.19019C13.9979 6.28124 13.2597 4.45109 11.9474 3.10126C10.6351 1.75143 8.85588 0.992149 7 0.990005ZM7 10.8903C6.48082 10.8903 5.97331 10.7319 5.54163 10.4352C5.10995 10.1385 4.7735 9.71684 4.57482 9.22346C4.37614 8.73009 4.32415 8.1872 4.42544 7.66344C4.52672 7.13967 4.77673 6.65857 5.14384 6.28096C5.51096 5.90334 5.97869 5.64619 6.48789 5.542C6.99709 5.43782 7.52489 5.49129 8.00454 5.69565C8.4842 5.90002 8.89417 6.24609 9.18261 6.69011C9.47105 7.13414 9.625 7.65617 9.625 8.19019C9.625 8.9063 9.34844 9.59307 8.85616 10.0994C8.36387 10.6058 7.69619 10.8903 7 10.8903Z" fill="#4F4F4F"/>
</svg>
