<svg width="24" height="24" viewBox="0 0 24 24" fill="none" xmlns="http://www.w3.org/2000/svg">
<path fill-rule="evenodd" clip-rule="evenodd" d="M23.5687 20.794C22.8279 23.0452 19.9254 24.1679 17.8518 23.9807C15.0198 23.7247 11.9382 22.2226 9.59895 20.5682C6.16052 18.1362 2.9397 14.3742 1.06288 10.3822C-0.263526 7.56134 -0.561131 4.09315 1.41168 1.52193C2.14129 0.571524 2.93169 0.0639322 4.1157 0.00473177C5.76052 -0.0752689 5.99092 0.865701 6.55573 2.33131C6.97653 3.42732 7.53814 4.54533 7.85174 5.68134C8.43894 7.80136 6.38612 7.88996 6.12692 9.62278C5.96692 10.7156 7.29013 12.1811 7.88854 12.9603C9.04196 14.4779 10.4547 15.7793 12.0614 16.8049C12.9734 17.3793 14.4422 18.4144 15.4854 17.8432C17.0918 16.9631 16.9414 14.2545 19.1862 15.1713C20.3494 15.6449 21.4758 16.3283 22.5863 16.9267C24.3031 17.8499 24.2231 18.8067 23.5687 20.794C23.0791 22.2788 24.0583 19.3091 23.5687 20.794Z" fill="#041342"/>
</svg>
