<svg width="20" height="20" viewBox="0 0 20 20" fill="none" xmlns="http://www.w3.org/2000/svg">
<path fill-rule="evenodd" clip-rule="evenodd" d="M4.4443 1.6853C6.08879 0.58649 8.02219 0 10 0C12.6522 0 15.1957 1.05357 17.0711 2.92893C18.9464 4.80429 20 7.34783 20 10C20 11.9778 19.4135 13.9112 18.3147 15.5557C17.2159 17.2002 15.6541 18.4819 13.8268 19.2388C11.9996 19.9957 9.98891 20.1937 8.0491 19.8078C6.10929 19.422 4.32746 18.4696 2.92894 17.0711C1.53041 15.6725 0.578004 13.8907 0.192152 11.9509C-0.1937 10.0111 0.00433283 8.00042 0.761209 6.17316C1.51808 4.3459 2.79981 2.78412 4.4443 1.6853ZM3.12185 12.1875C3.12185 12.6984 4.00313 13.2781 5.15625 13.2781C5.42365 13.3124 5.69532 13.2882 5.9524 13.207C6.20948 13.1258 6.44582 12.9897 6.64501 12.808C6.84421 12.6263 7.0015 12.4035 7.10597 12.155C7.21043 11.9065 7.25957 11.6382 7.24998 11.3687C7.24998 10.0212 6.26282 9.60229 5.45559 9.25978C4.89724 9.02287 4.42498 8.82248 4.42498 8.37656C4.42498 7.95469 4.78589 7.69844 5.42029 7.69844C5.87983 7.69844 6.13156 7.82772 6.32198 7.92552C6.4378 7.985 6.53094 8.03284 6.63435 8.03284C6.95154 8.03284 7.09217 7.62818 7.09217 7.42658C7.09217 6.84533 5.93904 6.72189 5.42029 6.72189C4.4078 6.72189 3.28123 7.17033 3.28123 8.48284C3.28123 9.64454 4.15743 10.0333 4.93388 10.3777C5.55162 10.6518 6.10623 10.8978 6.10623 11.4828C6.10623 12.0109 5.64842 12.2484 5.12029 12.2484C4.57108 12.2484 4.26854 11.9947 4.03399 11.798C3.88551 11.6735 3.76429 11.5719 3.62498 11.5719C3.35154 11.5719 3.12185 11.9406 3.12185 12.1875ZM11.991 12.0548C12.0856 11.7934 12.1196 11.514 12.0906 11.2375L12.0906 8.78122C12.1197 8.50473 12.0858 8.22524 11.9913 7.96377C11.8968 7.70229 11.7443 7.46565 11.5451 7.27163C11.346 7.07762 11.1055 6.93128 10.8416 6.84363C10.5778 6.75598 10.2975 6.7293 10.0219 6.7656C9.74672 6.72965 9.467 6.75665 9.2038 6.84456C8.9406 6.93247 8.70081 7.07901 8.5025 7.27311C8.30419 7.46721 8.15254 7.7038 8.059 7.96505C7.96546 8.2263 7.93247 8.50538 7.96251 8.78124V11.2375C7.93261 11.5133 7.9657 11.7923 8.0593 12.0535C8.15289 12.3147 8.30454 12.5513 8.50282 12.7453C8.7011 12.9394 8.94084 13.0859 9.20397 13.1739C9.4671 13.2618 9.74677 13.2889 10.0219 13.2531C10.2975 13.2893 10.5777 13.2625 10.8415 13.1748C11.1053 13.0871 11.3458 12.9408 11.5449 12.7468C11.744 12.5528 11.8965 12.3162 11.991 12.0548ZM12.75 12.1875C12.75 12.6984 13.6297 13.2781 14.7828 13.2781H14.7828C15.0503 13.3125 15.3221 13.2882 15.5793 13.2071C15.8364 13.126 16.0729 12.9899 16.2722 12.8082C16.4716 12.6266 16.629 12.4037 16.7337 12.1552C16.8383 11.9066 16.8876 11.6383 16.8782 11.3687C16.8782 10.0212 15.8911 9.60229 15.0838 9.25978C14.5255 9.02287 14.0532 8.82248 14.0532 8.37656C14.0532 7.95469 14.4142 7.69844 15.047 7.69844C15.507 7.69844 15.7594 7.828 15.9499 7.92584C16.0655 7.98517 16.1584 8.03284 16.261 8.03284C16.5782 8.03284 16.7188 7.62818 16.7188 7.42658C16.7188 6.84533 15.5657 6.72189 15.047 6.72189C14.0345 6.72189 12.9079 7.17033 12.9079 8.48284C12.9079 9.64454 13.7841 10.0333 14.5606 10.3777C15.1783 10.6518 15.7329 10.8978 15.7329 11.4828C15.7329 12.0109 15.2766 12.2484 14.7485 12.2484C14.1986 12.2484 13.8963 11.995 13.6618 11.7983C13.5131 11.6737 13.3917 11.5719 13.2516 11.5719C12.9782 11.5719 12.75 11.9406 12.75 12.1875ZM8.98997 8.72914C8.98997 7.97894 9.37632 7.63672 10.0479 7.63672C10.7086 7.63672 11.1166 7.97894 11.1166 8.72914V11.3793C11.1166 12.1295 10.7086 12.4701 10.0479 12.4701C9.37634 12.4701 8.98997 12.1295 8.98997 11.3793V8.72914Z" fill="#4F4F4F"/>
</svg>
