<svg width="14" height="18" viewBox="0 0 14 18" fill="none" xmlns="http://www.w3.org/2000/svg">
<path d="M12.8938 1.87252H8.84365C8.84365 1.3759 8.64941 0.899615 8.30366 0.548449C7.9579 0.197283 7.48897 0 7 0C6.51104 0 6.0421 0.197283 5.69635 0.548449C5.3506 0.899615 5.15636 1.3759 5.15636 1.87252H1.10619C0.812809 1.87252 0.531445 1.99089 0.323995 2.20159C0.116544 2.41229 0 2.69806 0 2.99604C0 3.29401 0.116544 3.57978 0.323995 3.79048C0.531445 4.00118 0.812809 4.11955 1.10619 4.11955L1.73244 16.2166C1.75497 16.6966 1.95831 17.1494 2.3004 17.4814C2.64248 17.8133 3.09712 17.999 3.57023 18H10.4122C10.8853 17.999 11.34 17.8133 11.682 17.4814C12.0241 17.1494 12.2275 16.6966 12.25 16.2166L12.8938 4.14333C13.1872 4.14333 13.4686 4.02496 13.676 3.81426C13.8835 3.60356 14 3.31779 14 3.01981C14 2.72184 13.8835 2.43607 13.676 2.22537C13.4686 2.01467 13.1872 1.8963 12.8938 1.8963V1.87252ZM5.8704 14.2193C5.8704 14.4179 5.79271 14.6084 5.65441 14.7489C5.51611 14.8894 5.32853 14.9683 5.13294 14.9683C4.93736 14.9683 4.74978 14.8894 4.61148 14.7489C4.47318 14.6084 4.39548 14.4179 4.39548 14.2193V6.75892C4.39548 6.56027 4.47318 6.36975 4.61148 6.22929C4.74978 6.08882 4.93736 6.00991 5.13294 6.00991C5.32853 6.00991 5.51611 6.08882 5.65441 6.22929C5.79271 6.36975 5.8704 6.56027 5.8704 6.75892V14.2193ZM9.55184 14.2193C9.56095 14.3229 9.54873 14.4272 9.51596 14.5257C9.48319 14.6242 9.43058 14.7147 9.36148 14.7915C9.29239 14.8682 9.20832 14.9295 9.11463 14.9714C9.02094 15.0133 8.91969 15.035 8.81731 15.035C8.71493 15.035 8.61368 15.0133 8.51999 14.9714C8.4263 14.9295 8.34223 14.8682 8.27314 14.7915C8.20404 14.7147 8.15143 14.6242 8.11866 14.5257C8.08589 14.4272 8.07367 14.3229 8.08278 14.2193V6.75892C8.09917 6.57255 8.18365 6.39916 8.31959 6.27288C8.45553 6.1466 8.63308 6.07657 8.81731 6.07657C9.00153 6.07657 9.17909 6.1466 9.31502 6.27288C9.45096 6.39916 9.53545 6.57255 9.55184 6.75892V14.2193Z" fill="#5E5E62"/>
</svg>
