<svg width="24" height="30" viewBox="0 0 24 30" fill="none" xmlns="http://www.w3.org/2000/svg">
<path d="M21.8232 3.12087H15.0729C15.0729 2.29316 14.7492 1.49936 14.1729 0.914082C13.5967 0.328805 12.8151 0 12.0002 0C11.1852 0 10.4037 0.328805 9.82741 0.914082C9.25115 1.49936 8.92742 2.29316 8.92742 3.12087H2.17714C1.68818 3.12087 1.21924 3.31815 0.873487 3.66932C0.527736 4.02049 0.333496 4.49677 0.333496 4.99339C0.333496 5.49002 0.527736 5.9663 0.873487 6.31747C1.21924 6.66863 1.68818 6.86592 2.17714 6.86592L3.2209 27.0277C3.25845 27.8277 3.59735 28.5824 4.16749 29.1357C4.73763 29.6889 5.49536 29.9984 6.28389 30H17.6872C18.4757 29.9984 19.2334 29.6889 19.8036 29.1357C20.3737 28.5824 20.7126 27.8277 20.7502 27.0277L21.8232 6.90555C22.3121 6.90555 22.7811 6.70826 23.1268 6.3571C23.4726 6.00593 23.6668 5.52965 23.6668 5.03302C23.6668 4.5364 23.4726 4.06012 23.1268 3.70895C22.7811 3.35778 22.3121 3.1605 21.8232 3.1605V3.12087ZM10.1175 23.6988C10.1175 24.0299 9.98801 24.3474 9.7575 24.5815C9.527 24.8156 9.21438 24.9472 8.8884 24.9472C8.56242 24.9472 8.2498 24.8156 8.0193 24.5815C7.7888 24.3474 7.6593 24.0299 7.6593 23.6988V11.2649C7.6593 10.9338 7.7888 10.6163 8.0193 10.3821C8.2498 10.148 8.56242 10.0165 8.8884 10.0165C9.21438 10.0165 9.527 10.148 9.7575 10.3821C9.98801 10.6163 10.1175 10.9338 10.1175 11.2649V23.6988ZM16.2532 23.6988C16.2684 23.8714 16.248 24.0454 16.1934 24.2095C16.1388 24.3737 16.0511 24.5246 15.936 24.6524C15.8208 24.7803 15.6807 24.8824 15.5245 24.9523C15.3684 25.0222 15.1996 25.0583 15.029 25.0583C14.8584 25.0583 14.6896 25.0222 14.5335 24.9523C14.3773 24.8824 14.2372 24.7803 14.1221 24.6524C14.0069 24.5246 13.9192 24.3737 13.8646 24.2095C13.81 24.0454 13.7896 23.8714 13.8048 23.6988V11.2649C13.8321 10.9542 13.9729 10.6653 14.1995 10.4548C14.426 10.2443 14.722 10.1276 15.029 10.1276C15.3361 10.1276 15.632 10.2443 15.8585 10.4548C16.0851 10.6653 16.2259 10.9542 16.2532 11.2649V23.6988Z" fill="#041342"/>
</svg>
