<svg width="18" height="14" viewBox="0 0 18 14" fill="none" xmlns="http://www.w3.org/2000/svg">
<path d="M15.5455 3.31579H13.0909V0H1.63636C0.732273 0 0 0.741908 0 1.65789V10.7763H1.63636C1.63636 12.1482 2.73682 13.2632 4.09091 13.2632C5.445 13.2632 6.54545 12.1482 6.54545 10.7763H11.4545C11.4545 12.1482 12.555 13.2632 13.9091 13.2632C15.2632 13.2632 16.3636 12.1482 16.3636 10.7763H18V6.63158L15.5455 3.31579ZM4.09091 12.0197C3.41182 12.0197 2.86364 11.4643 2.86364 10.7763C2.86364 10.0883 3.41182 9.5329 4.09091 9.5329C4.77 9.5329 5.31818 10.0883 5.31818 10.7763C5.31818 11.4643 4.77 12.0197 4.09091 12.0197ZM15.1364 4.55921L16.7441 6.63158H13.0909V4.55921H15.1364ZM13.9091 12.0197C13.23 12.0197 12.6818 11.4643 12.6818 10.7763C12.6818 10.0883 13.23 9.5329 13.9091 9.5329C14.5882 9.5329 15.1364 10.0883 15.1364 10.7763C15.1364 11.4643 14.5882 12.0197 13.9091 12.0197Z" fill="#606060"/>
</svg>
