<svg width="22" height="16" viewBox="0 0 22 16" fill="none" xmlns="http://www.w3.org/2000/svg">
<path d="M19.001 4H16.001V0H2.00098C0.895977 0 0.000976562 0.895 0.000976562 2V13H2.00098C2.00098 14.655 3.34598 16 5.00098 16C6.65598 16 8.00098 14.655 8.00098 13H14.001C14.001 14.655 15.346 16 17.001 16C18.656 16 20.001 14.655 20.001 13H22.001V8L19.001 4ZM5.00098 14.5C4.17098 14.5 3.50098 13.83 3.50098 13C3.50098 12.17 4.17098 11.5 5.00098 11.5C5.83098 11.5 6.50098 12.17 6.50098 13C6.50098 13.83 5.83098 14.5 5.00098 14.5ZM18.501 5.5L20.466 8H16.001V5.5H18.501ZM17.001 14.5C16.171 14.5 15.501 13.83 15.501 13C15.501 12.17 16.171 11.5 17.001 11.5C17.831 11.5 18.501 12.17 18.501 13C18.501 13.83 17.831 14.5 17.001 14.5Z" fill="#2185D0"/>
</svg>
