<svg width="15" height="11" viewBox="0 0 15 11" fill="none" xmlns="http://www.w3.org/2000/svg">
<path d="M12.5909 2.92105H10.6818V0.342102H1.77273C1.06955 0.342102 0.5 0.919141 0.5 1.63158V8.72368H1.77273C1.77273 9.79072 2.62864 10.6579 3.68182 10.6579C4.735 10.6579 5.59091 9.79072 5.59091 8.72368H9.40909C9.40909 9.79072 10.265 10.6579 11.3182 10.6579C12.3714 10.6579 13.2273 9.79072 13.2273 8.72368H14.5V5.5L12.5909 2.92105ZM3.68182 9.69079C3.15364 9.69079 2.72727 9.25881 2.72727 8.72368C2.72727 8.18855 3.15364 7.75658 3.68182 7.75658C4.21 7.75658 4.63636 8.18855 4.63636 8.72368C4.63636 9.25881 4.21 9.69079 3.68182 9.69079ZM12.2727 3.88815L13.5232 5.5H10.6818V3.88815H12.2727ZM11.3182 9.69079C10.79 9.69079 10.3636 9.25881 10.3636 8.72368C10.3636 8.18855 10.79 7.75658 11.3182 7.75658C11.8464 7.75658 12.2727 8.18855 12.2727 8.72368C12.2727 9.25881 11.8464 9.69079 11.3182 9.69079Z" fill="white"/>
</svg>
